:FULLY-SPECIFIED
:FORCE-ALL-JOINTS-BE-3DOF
:DEGREES
114
root 9.36081 16.1867 -21.4367 4.14352 3.68701 4.58585
lfemur 13.625 0.46244 -28.7974
ltibia 7.95142e-15 0 0
lfoot -14.0909 2.63379 0
ltoes -2.96684 0 0
rfemur -40.1562 11.6004 7.45411
rtibia 28.8419 0 0
rfoot -23.0727 -9.03522 0
rtoes -19.2059 0 0
lowerback -8.03279 -3.24744 -5.60217
upperback -0.990268 -3.92254 2.33332
thorax 4.01453 -2.05714 5.12677
lowerneck -19.4413 -5.1395 -13.2499
upperneck 21.3876 -5.88888 10.8419
head 10.8426 -2.51949 5.26754
lclavicle 3.43522e-15 4.37326e-15 0
lhumerus -25.0023 -26.4863 92.5476
lradius 42.3863 0 0
lwrist 12.9437 0 0
lhand -13.0986 -25.2787 0
lfingers 7.12502 0 0
lthumb 12.9981 4.29495 0
rclavicle 3.43522e-15 4.37326e-15 0
rhumerus -46.3995 9.49124 -84.5457
rradius 35.5506 0 0
rwrist -19.3053 0 0
rhand -29.5042 -23.5264 0
rfingers 7.12502 0 0
rthumb -2.83865 -53.4869 0
115
root 9.35402 16.1749 -21.3024 4.23169 4.03138 4.63309
lfemur 14.0368 0.472366 -28.7253
ltibia 1.59028e-14 0 0
lfoot -14.3807 2.42559 0
ltoes -2.85137 0 0
rfemur -40.5964 12.2383 6.76713
rtibia 28.2368 0 0
rfoot -23.451 -9.44436 0
rtoes -19.0088 0 0
lowerback -8.14713 -3.307 -5.6302
upperback -0.9908 -3.99267 2.31486
thorax 4.08787 -2.09412 5.10896
lowerneck -19.3289 -5.17902 -13.265
upperneck 21.3105 -5.95092 10.8474
head 10.8023 -2.55068 5.25973
lclavicle 1.08213e-14 3.18055e-15 0
lhumerus -25.3625 -26.7335 92.9123
lradius 42.6137 0 0
lwrist 13.0172 0 0
lhand -12.7579 -25.2959 0
lfingers 7.12502 0 0
lthumb 13.3266 4.25797 0
rclavicle 1.08213e-14 3.18055e-15 0
rhumerus -46.3924 9.13805 -84.2543
rradius 35.2817 0 0
rwrist -19.1783 0 0
rhand -29.3331 -23.3051 0
rfingers 7.12502 0 0
rthumb -2.67343 -53.2681 0
116
root 9.34104 16.1581 -21.1629 4.34963 4.31568 4.72407
lfemur 14.463 0.518138 -28.6271
ltibia 1.48426e-14 0 0
lfoot -14.5793 2.12331 0
ltoes -3.05769 0 0
rfemur -40.8506 12.3053 6.41318
rtibia 27.95 0 0
rfoot -23.7237 -10.1172 0
rtoes -19.5218 0 0
lowerback -8.17696 -3.35851 -5.7251
upperback -1.0149 -4.05018 2.29036
thorax 4.09207 -2.12339 5.12805
lowerneck -19.313 -5.19818 -13.3426
upperneck 21.3033 -5.98349 10.9548
head 10.8079 -2.56 5.30856
lclavicle 2.2363e-15 7.95142e-16 0
lhumerus -25.8293 -26.7758 93.3426
lradius 42.5027 0 0
lwrist 12.832 0 0
lhand -12.5619 -25.1127 0
lfingers 7.12502 0 0
lthumb 13.5155 4.42819 0
rclavicle 2.2363e-15 7.95142e-16 0
rhumerus -46.5084 8.87749 -84.0724
rradius 35.1267 0 0
rwrist -19.0121 0 0
rhand -29.3172 -23.2222 0
rfingers 7.12502 0 0
rthumb -2.65803 -53.1854 0
117
root 9.32806 16.1413 -21.0234 4.46757 4.59997 4.81505
lfemur 14.8892 0.563909 -28.5289
ltibia 1.37824e-14 0 0
lfoot -14.778 1.82103 0
ltoes -3.26402 0 0
rfemur -41.1049 12.3724 6.05923
rtibia 27.6631 0 0
rfoot -23.9965 -10.7901 0
rtoes -20.0348 0 0
lowerback -8.2068 -3.41001 -5.82
upperback -1.03901 -4.1077 2.26586
thorax 4.09627 -2.15265 5.14715
lowerneck -19.297 -5.21734 -13.4201
upperneck 21.2962 -6.01607 11.0623
head 10.8136 -2.56932 5.35738
lclavicle -6.3487e-15 -1.59027e-15 0
lhumerus -26.296 -26.818 93.7729
lradius 42.3917 0 0
lwrist 12.6468 0 0
lhand -12.3659 -24.9296 0
lfingers 7.12502 0 0
lthumb 13.7044 4.59841 0
rclavicle -6.3487e-15 -1.59027e-15 0
rhumerus -46.6244 8.61692 -83.8906
rradius 34.9717 0 0
rwrist -18.8459 0 0
rhand -29.3012 -23.1394 0
rfingers 7.12502 0 0
rthumb -2.64262 -53.1027 0
118
root 9.31508 16.1245 -20.8839 4.58552 4.88427 4.90603
lfemur 15.3154 0.609681 -28.4306
ltibia 1.27222e-14 0 0
lfoot -14.9766 1.51875 0
ltoes -3.47035 0 0
rfemur -41.3591 12.4394 5.70528
rtibia 27.3763 0 0
rfoot -24.2692 -11.463 0
rtoes -20.5478 0 0
lowerback -8.23663 -3.46152 -5.9149
upperback -1.06312 -4.16521 2.24136
thorax 4.10046 -2.18192 5.16624
lowerneck -19.2811 -5.23651 -13.4977
upperneck 21.289 -6.04864 11.1697
head 10.8192 -2.57864 5.4062
lclavicle -1.49337e-14 -3.97568e-15 0
lhumerus -26.7628 -26.8603 94.2032
lradius 42.2807 0 0
lwrist 12.4616 0 0
lhand -12.1699 -24.7464 0
lfingers 7.12502 0 0
lthumb 13.8932 4.76863 0
rclavicle -1.49337e-14 -3.97568e-15 0
rhumerus -46.7404 8.35636 -83.7087
rradius 34.8166 0 0
rwrist -18.6797 0 0
rhand -29.2853 -23.0565 0
rfingers 7.12502 0 0
rthumb -2.62722 -53.02 0
119
root 9.3021 16.1077 -20.7445 4.70346 5.16857 4.99701
lfemur 15.7415 0.655453 -28.3324
ltibia 1.1662e-14 0 0
lfoot -15.1753 1.21647 0
ltoes -3.67667 0 0
rfemur -41.6133 12.5064 5.35133
rtibia 27.0895 0 0
rfoot -24.5419 -12.1359 0
rtoes -21.0608 0 0
lowerback -8.26646 -3.51303 -6.0098
upperback -1.08722 -4.22272 2.21686
thorax 4.10466 -2.21118 5.18534
lowerneck -19.2651 -5.25567 -13.5753
upperneck 21.2818 -6.08121 11.2771
head 10.8248 -2.58797 5.45503
lclavicle -2.35187e-14 -6.36108e-15 0
lhumerus -27.2295 -26.9026 94.6336
lradius 42.1698 0 0
lwrist 12.2764 0 0
lhand -11.9738 -24.5632 0
lfingers 7.12502 0 0
lthumb 14.0821 4.93885 0
rclavicle -2.35187e-14 -6.36108e-15 0
rhumerus -46.8564 8.09579 -83.5268
rradius 34.6616 0 0
rwrist -18.5134 0 0
rhand -29.2693 -22.9736 0
rfingers 7.12502 0 0
rthumb -2.61182 -52.9374 0
120
root 9.28912 16.0909 -20.605 4.8214 5.45286 5.08799
lfemur 16.1677 0.701224 -28.2342
ltibia 1.06019e-14 0 0
lfoot -15.374 0.914186 0
ltoes -3.883 0 0
rfemur -41.8676 12.5735 4.99738
rtibia 26.8026 0 0
rfoot -24.8147 -12.8087 0
rtoes -21.5738 0 0
lowerback -8.2963 -3.56453 -6.1047
upperback -1.11132 -4.28024 2.19236
thorax 4.10886 -2.24044 5.20444
lowerneck -19.2492 -5.27483 -13.6528
upperneck 21.2747 -6.11379 11.3846
head 10.8305 -2.59729 5.50385
lclavicle -3.21037e-14 -8.74649e-15 0
lhumerus -27.6962 -26.9448 95.0639
lradius 42.0588 0 0
lwrist 12.0912 0 0
lhand -11.7778 -24.3801 0
lfingers 7.12502 0 0
lthumb 14.271 5.10907 0
rclavicle -3.21037e-14 -8.74649e-15 0
rhumerus -46.9724 7.83522 -83.345
rradius 34.5066 0 0
rwrist -18.3472 0 0
rhand -29.2534 -22.8908 0
rfingers 7.12502 0 0
rthumb -2.59641 -52.8547 0
121
root 9.27614 16.0741 -20.4655 4.93934 5.73716 5.17897
lfemur 16.5939 0.746996 -28.136
ltibia 9.54166e-15 0 0
lfoot -15.5726 0.611905 0
ltoes -4.08932 0 0
rfemur -42.1218 12.6405 4.64343
rtibia 26.5158 0 0
rfoot -25.0874 -13.4816 0
rtoes -22.0868 0 0
lowerback -8.32613 -3.61604 -6.1996
upperback -1.13543 -4.33775 2.16786
thorax 4.11306 -2.26971 5.22353
lowerneck -19.2332 -5.29399 -13.7304
upperneck 21.2675 -6.14636 11.492
head 10.8361 -2.60661 5.55268
lclavicle -4.06887e-14 -1.11319e-14 0
lhumerus -28.163 -26.9871 95.4942
lradius 41.9478 0 0
lwrist 11.906 0 0
lhand -11.5818 -24.1969 0
lfingers 7.12502 0 0
lthumb 14.4599 5.27929 0
rclavicle -4.06887e-14 -1.11319e-14 0
rhumerus -47.0884 7.57466 -83.1631
rradius 34.3516 0 0
rwrist -18.181 0 0
rhand -29.2374 -22.8079 0
rfingers 7.12502 0 0
rthumb -2.58101 -52.772 0
122
root 9.25716 16.0572 -20.3157 5.09569 5.96588 5.31742
lfemur 16.9831 0.819295 -28.0223
ltibia 1.90833e-14 0 0
lfoot -15.3961 0.331458 0
ltoes -4.71003 0 0
rfemur -42.2138 12.2144 4.65456
rtibia 26.5491 0 0
rfoot -24.9032 -13.3303 0
rtoes -21.6112 0 0
lowerback -8.3492 -3.68968 -6.35478
upperback -1.14717 -4.41915 2.14156
thorax 4.1355 -2.3127 5.27067
lowerneck -19.3105 -5.30502 -13.6442
upperneck 21.2436 -6.15858 11.4236
head 10.8383 -2.61035 5.50875
lclavicle -3.44469e-14 -1.09994e-14 0
lhumerus -28.5684 -26.6625 95.8192
lradius 41.431 0 0
lwrist 11.4998 0 0
lhand -11.4503 -24.2107 0
lfingers 7.12502 0 0
lthumb 14.5866 5.25613 0
rclavicle -3.44469e-14 -1.09994e-14 0
rhumerus -47.1201 7.40942 -83.1096
rradius 34.134 0 0
rwrist -18.3736 0 0
rhand -29.488 -22.4997 0
rfingers 7.12502 0 0
rthumb -2.82296 -52.46 0
123
root 9.23819 16.0402 -20.1659 5.25204 6.1946 5.45588
lfemur 17.3723 0.891594 -27.9086
ltibia 2.8625e-14 0 0
lfoot -15.2195 0.05101 0
ltoes -5.33075 0 0
rfemur -42.3058 11.7882 4.66569
rtibia 26.5825 0 0
rfoot -24.7189 -13.179 0
rtoes -21.1355 0 0
lowerback -8.37227 -3.76331 -6.50996
upperback -1.15892 -4.50055 2.11526
thorax 4.15794 -2.35569 5.3178
lowerneck -19.3878 -5.31605 -13.558
upperneck 21.2197 -6.17081 11.3552
head 10.8405 -2.6141 5.46483
lclavicle -2.82051e-14 -1.08669e-14 0
lhumerus -28.9737 -26.3379 96.1442
lradius 40.9142 0 0
lwrist 11.0935 0 0
lhand -11.3187 -24.2245 0
lfingers 7.12502 0 0
lthumb 14.7134 5.23296 0
rclavicle -2.82051e-14 -1.08669e-14 0
rhumerus -47.1518 7.24417 -83.0561
rradius 33.9165 0 0
rwrist -18.5662 0 0
rhand -29.7385 -22.1915 0
rfingers 7.12502 0 0
rthumb -3.06491 -52.1481 0
124
root 9.21921 16.0233 -20.0161 5.40839 6.42332 5.59433
lfemur 17.7615 0.963893 -27.7949
ltibia 3.81666e-14 0 0
lfoot -15.0429 -0.229438 0
ltoes -5.95146 0 0
rfemur -42.3978 11.3621 4.67682
rtibia 26.6159 0 0
rfoot -24.5346 -13.0277 0
rtoes -20.6599 0 0
lowerback -8.39534 -3.83695 -6.66514
upperback -1.17066 -4.58195 2.08896
thorax 4.18037 -2.39867 5.36494
lowerneck -19.4651 -5.32707 -13.4718
upperneck 21.1959 -6.18304 11.2868
head 10.8427 -2.61784 5.4209
lclavicle -2.19634e-14 -1.07343e-14 0
lhumerus -29.3791 -26.0134 96.4692
lradius 40.3974 0 0
lwrist 10.6873 0 0
lhand -11.1871 -24.2384 0
lfingers 7.12502 0 0
lthumb 14.8401 5.2098 0
rclavicle -2.19634e-14 -1.07343e-14 0
rhumerus -47.1835 7.07892 -83.0026
rradius 33.6989 0 0
rwrist -18.7587 0 0
rhand -29.989 -21.8833 0
rfingers 7.12502 0 0
rthumb -3.30686 -51.8361 0
125
root 9.20023 16.0064 -19.8664 5.56475 6.65203 5.73278
lfemur 18.1507 1.03619 -27.6812
ltibia 4.77083e-14 0 0
lfoot -14.8664 -0.509885 0
ltoes -6.57218 0 0
rfemur -42.4898 10.936 4.68795
rtibia 26.6492 0 0
rfoot -24.3504 -12.8763 0
rtoes -20.1843 0 0
lowerback -8.41841 -3.91058 -6.82032
upperback -1.1824 -4.66335 2.06267
thorax 4.20281 -2.44166 5.41207
lowerneck -19.5424 -5.3381 -13.3857
upperneck 21.172 -6.19526 11.2184
head 10.8449 -2.62158 5.37697
lclavicle -1.57216e-14 -1.06018e-14 0
lhumerus -29.7845 -25.6888 96.7942
lradius 39.8806 0 0
lwrist 10.281 0 0
lhand -11.0556 -24.2522 0
lfingers 7.12502 0 0
lthumb 14.9669 5.18664 0
rclavicle -1.57216e-14 -1.06018e-14 0
rhumerus -47.2153 6.91368 -82.9491
rradius 33.4813 0 0
rwrist -18.9513 0 0
rhand -30.2396 -21.575 0
rfingers 7.12502 0 0
rthumb -3.5488 -51.5241 0
126
root 9.18126 15.9894 -19.7166 5.7211 6.88075 5.87124
lfemur 18.5399 1.10849 -27.5675
ltibia 5.72499e-14 0 0
lfoot -14.6898 -0.790333 0
ltoes -7.1929 0 0
rfemur -42.5818 10.5098 4.69908
rtibia 26.6826 0 0
rfoot -24.1661 -12.725 0
rtoes -19.7086 0 0
lowerback -8.44148 -3.98422 -6.9755
upperback -1.19415 -4.74475 2.03637
thorax 4.22525 -2.48465 5.4592
lowerneck -19.6197 -5.34913 -13.2995
upperneck 21.1481 -6.20749 11.15
head 10.8471 -2.62533 5.33305
lclavicle -9.4798e-15 -1.04693e-14 0
lhumerus -30.1898 -25.3642 97.1192
lradius 39.3638 0 0
lwrist 9.87476 0 0
lhand -10.924 -24.266 0
lfingers 7.12502 0 0
lthumb 15.0937 5.16347 0
rclavicle -9.4798e-15 -1.04693e-14 0
rhumerus -47.247 6.74843 -82.8956
rradius 33.2638 0 0
rwrist -19.1439 0 0
rhand -30.4901 -21.2668 0
rfingers 7.12502 0 0
rthumb -3.79075 -51.2122 0
127
root 9.16228 15.9725 -19.5668 5.87745 7.10947 6.00969
lfemur 18.9291 1.18079 -27.4538
ltibia 6.67916e-14 0 0
lfoot -14.5133 -1.07078 0
ltoes -7.81361 0 0
rfemur -42.6738 10.0837 4.71021
rtibia 26.7159 0 0
rfoot -23.9819 -12.5737 0
rtoes -19.233 0 0
lowerback -8.46455 -4.05785 -7.13068
upperback -1.20589 -4.82615 2.01007
thorax 4.24769 -2.52764 5.50634
lowerneck -19.697 -5.36016 -13.2133
upperneck 21.1242 -6.21971 11.0816
head 10.8493 -2.62907 5.28912
lclavicle -3.23802e-15 -1.03368e-14 0
lhumerus -30.5952 -25.0396 97.4442
lradius 38.847 0 0
lwrist 9.46851 0 0
lhand -10.7925 -24.2798 0
lfingers 7.12502 0 0
lthumb 15.2204 5.14031 0
rclavicle -3.23802e-15 -1.03368e-14 0
rhumerus -47.2787 6.58319 -82.8421
rradius 33.0462 0 0
rwrist -19.3365 0 0
rhand -30.7407 -20.9586 0
rfingers 7.12502 0 0
rthumb -4.0327 -50.9002 0
